# xmcd CD database file
#
# Track frame offsets:
#	150
#	19692
#	43600
#
# Disc length: 1046 seconds
#
# Revision: 0
# Processed by: cddbd v1.5.1PL0 Copyright (c) Steve Scherf et al.
# Submitted via: CDex 1.51
#
DISCID=1a041403
DTITLE=The JUICE - カゼをひこう
DYEAR=1995
DGENRE=Rock
TTITLE0=カゼをひこう
TTITLE1=EMERALD GREEN BLARNEY STONE
TTITLE2=Into The JUICE BOX
EXTD=YEAR: 1995
EXTT0=
EXTT1=
EXTT2=
PLAYORDER=
